<svg width="16" height="16" viewBox="0 0 16 16" fill="none" xmlns="http://www.w3.org/2000/svg">
<path d="M4.90742 0.428101C3.84377 1.02252 2.93238 1.85542 2.24484 2.86139C1.55729 3.86737 1.11231 5.01903 0.944818 6.22594C0.777328 7.43286 0.891898 8.66217 1.27953 9.81735C1.66716 10.9725 2.3173 12.0221 3.17889 12.8837C4.04049 13.7453 5.09009 14.3955 6.24527 14.7831C7.40045 15.1707 8.62976 15.2853 9.83668 15.1178C11.0436 14.9503 12.1953 14.5053 13.2012 13.8178C14.2072 13.1302 15.0401 12.2189 15.6345 11.1552C12.633 12.8355 8.76482 12.4035 6.21242 9.8511C3.65912 7.2978 3.22622 3.4305 4.90742 0.428101Z" fill="#F99F1C"/>
</svg>
