<svg width="11" height="14" viewBox="0 0 11 14" fill="none" xmlns="http://www.w3.org/2000/svg">
<path d="M5.5625 0.0581055C2.74912 0.0581055 0.5 2.30723 0.5 5.12061C0.5 6.09355 0.790039 6.84502 1.29365 7.60703L5.02988 13.276C5.14326 13.4474 5.33838 13.5581 5.5625 13.5581C5.78662 13.5581 5.98438 13.4447 6.09512 13.276L9.83135 7.60703C10.335 6.84502 10.625 6.09355 10.625 5.12061C10.625 2.30723 8.37588 0.0581055 5.5625 0.0581055ZM5.5625 7.93135C4.00947 7.93135 2.74912 6.671 2.74912 5.11533C2.74912 3.55967 4.00947 2.29932 5.5625 2.29932C7.11553 2.29932 8.37588 3.55967 8.37588 5.11533C8.37588 6.671 7.11553 7.93135 5.5625 7.93135Z" fill="#F99F1C"/>
</svg>
