<svg width="10" height="16" viewBox="0 0 10 16" fill="none" xmlns="http://www.w3.org/2000/svg">
<path fill-rule="evenodd" clip-rule="evenodd" d="M0.5 0.308105V1.80811H1.25V4.05811C1.25 5.05267 1.64509 6.00649 2.34835 6.70976C3.05161 7.41302 4.00544 7.80811 5 7.80811C4.00544 7.80811 3.05161 8.20319 2.34835 8.90646C1.64509 9.60972 1.25 10.5635 1.25 11.5581V13.8081H0.5V15.3081H9.5V13.8081H8.75V11.5581C8.75 10.5635 8.35491 9.60972 7.65165 8.90646C6.94839 8.20319 5.99456 7.80811 5 7.80811C5.49246 7.80811 5.98009 7.71111 6.43506 7.52265C6.89003 7.3342 7.30343 7.05798 7.65165 6.70976C7.99987 6.36154 8.27609 5.94814 8.46455 5.49317C8.653 5.0382 8.75 4.55056 8.75 4.05811V1.80811H9.5V0.308105H0.5ZM2.75 1.80811H7.25V4.05811C7.25 4.65484 7.01295 5.22714 6.59099 5.6491C6.16903 6.07105 5.59674 6.30811 5 6.30811C4.40326 6.30811 3.83097 6.07105 3.40901 5.6491C2.98705 5.22714 2.75 4.65484 2.75 4.05811V1.80811ZM2.75 11.5581V13.8081H7.25V11.5581C7.25 10.9614 7.01295 10.3891 6.59099 9.96712C6.16903 9.54516 5.59674 9.30811 5 9.30811C4.40326 9.30811 3.83097 9.54516 3.40901 9.96712C2.98705 10.3891 2.75 10.9614 2.75 11.5581Z" fill="#F99F1C"/>
</svg>
