<svg width="16" height="16" viewBox="0 0 16 16" fill="none" xmlns="http://www.w3.org/2000/svg">
<path d="M8.25 10.0581C9.49264 10.0581 10.5 9.05075 10.5 7.80811C10.5 6.56546 9.49264 5.55811 8.25 5.55811C7.00736 5.55811 6 6.56546 6 7.80811C6 9.05075 7.00736 10.0581 8.25 10.0581Z" fill="#F99F1C"/>
<path d="M9 1.85986V0.308105H7.5V1.85986C6.18013 2.02812 4.95349 2.62991 4.01265 3.57075C3.0718 4.5116 2.47001 5.73823 2.30175 7.05811H0.75V8.55811H2.30175C2.46989 9.87803 3.07164 11.1047 4.01251 12.0456C4.95338 12.9865 6.18008 13.5882 7.5 13.7564V15.3081H9V13.7564C10.3199 13.5882 11.5466 12.9865 12.4875 12.0456C13.4284 11.1047 14.0301 9.87803 14.1982 8.55811H15.75V7.05811H14.1982C14.03 5.73823 13.4282 4.5116 12.4874 3.57075C11.5465 2.62991 10.3199 2.02812 9 1.85986ZM8.25 12.3081C5.76825 12.3081 3.75 10.2899 3.75 7.80811C3.75 5.32636 5.76825 3.30811 8.25 3.30811C10.7318 3.30811 12.75 5.32636 12.75 7.80811C12.75 10.2899 10.7318 12.3081 8.25 12.3081Z" fill="#F99F1C"/>
</svg>
